<?xml version="1.0" standalone="no"?>
<!DOCTYPE svg PUBLIC "-//W3C//DTD SVG 20010904//EN"
 "http://www.w3.org/TR/2001/REC-SVG-20010904/DTD/svg10.dtd">
<svg version="1.0" xmlns="http://www.w3.org/2000/svg"
 width="16.000000pt" height="16.000000pt" viewBox="0 0 16.000000 16.000000"
 preserveAspectRatio="xMidYMid meet">
<metadata>
Created by potrace 1.11, written by Peter Selinger 2001-2013
</metadata>
<g transform="translate(0.000000,16.000000) scale(0.002286,-0.002286)"
fill="#000000" stroke="none">
<path d="M3308 6924 c-2 -1 -44 -5 -93 -9 -50 -3 -106 -8 -125 -11 -74 -11
-86 -13 -135 -20 -27 -5 -52 -9 -55 -9 -3 -1 -25 -5 -50 -9 -166 -29 -438
-109 -625 -184 -1062 -427 -1846 -1360 -2080 -2477 -50 -239 -68 -424 -69
-700 0 -233 7 -325 39 -550 34 -230 139 -592 237 -815 37 -83 159 -323 179
-351 10 -15 19 -30 19 -34 0 -14 170 -263 245 -359 110 -140 120 -152 300
-331 437 -437 980 -745 1575 -891 129 -32 224 -50 389 -74 283 -41 772 -30
1041 25 14 3 41 8 60 11 79 14 322 77 418 110 268 90 569 233 750 355 24 16
45 29 48 29 11 0 287 207 346 260 264 237 426 416 593 655 299 429 500 936
576 1455 5 36 11 79 14 95 19 129 26 533 11 690 -8 86 -32 274 -41 315 -3 14
-8 41 -11 60 -13 77 -77 319 -109 414 -120 360 -282 671 -506 971 -121 161
-161 207 -318 367 -129 130 -269 253 -402 351 -77 56 -260 177 -289 190 -8 4
-31 17 -50 29 -71 43 -308 158 -410 198 -192 76 -466 158 -620 184 -19 3 -46
8 -60 11 -32 7 -226 33 -305 41 -61 6 -482 13 -487 8z"/>
</g>
</svg>
